<?xml version="1.0" encoding="UTF-8"?>
<svg id="Layer_1" xmlns="http://www.w3.org/2000/svg" xmlns:xlink="http://www.w3.org/1999/xlink" version="1.1" viewBox="0 0 1024 1024">
  <!-- Generator: Adobe Illustrator 29.5.1, SVG Export Plug-In . SVG Version: 2.1.0 Build 141)  -->
  <defs>
    <style>
      .st0 {
        fill: url(#radial-gradient);
      }

      .st1 {
        fill: #fff;
      }

      .st2 {
        fill: #acc0de;
      }
    </style>
    <radialGradient id="radial-gradient" cx="-196.55" cy="-218.71" fx="-196.55" fy="-218.71" r="1279.94" gradientUnits="userSpaceOnUse">
      <stop offset="0" stop-color="#58595b"/>
      <stop offset="1" stop-color="#414042"/>
    </radialGradient>
  </defs>
  <rect class="st0" width="1024" height="1024" rx="139.24" ry="139.24"/>
  <g id="DMOyUc">
    <g>
      <path class="st1" d="M333.6,520.08c-13.15-7.63-124.72,25.76-145.11,33.25-109.71,40.34-207.32,126.23-64.44,211.6,177.21,105.88,598.86,104.69,776.59,0,91.24-53.75,95.84-121.45,4.55-178.79-60.52-38.01-137.7-55.35-207.62-67.01l-32.5,42.72c52.85-.68,277.55,59.47,138.46,122.93-123.7,56.44-419.29,51.64-549.14,12.02-24.03-7.33-85.26-28.76-77.36-61.42,10.74-44.4,142.63-69.53,182.7-74.84,4.57-2.49.17-6.97-1.71-9.78-2.39-3.56-22.72-29.7-24.42-30.68Z"/>
      <path class="st2" d="M491.64,128.22c127.23-10.75,228.06,91.21,214.13,218.52-7.32,66.86-43.97,136.79-80.41,192.24-32.48,49.43-71.24,96.02-112.37,138.39-1.93.34-9.09-7.54-10.83-9.38-82-86.76-198.43-245.51-183.01-370.71,10.69-86.76,84.48-161.62,172.49-169.05ZM504.83,200.05c-82.48,5.74-133.96,89.77-102.58,166.2,36.54,89.01,161.72,98.34,211.96,16.48,50.48-82.24-12.8-189.4-109.38-182.68Z"/>
      <path class="st1" d="M333.6,520.08c1.7.98,22.03,27.12,24.42,30.68,1.88,2.81,6.28,7.29,1.71,9.78-40.07,5.3-171.95,30.44-182.7,74.84-7.9,32.66,53.33,54.09,77.36,61.42,129.85,39.63,425.44,44.43,549.14-12.02,139.09-63.47-85.61-123.61-138.46-122.93l32.5-42.72c69.92,11.67,147.11,29,207.62,67.01,91.28,57.34,86.69,125.04-4.55,178.79-177.73,104.69-599.39,105.88-776.59,0-142.88-85.37-45.27-171.26,64.44-211.6,20.39-7.49,131.96-40.89,145.11-33.25Z"/>
    </g>
  </g>
</svg>